<svg id="Layer_1" data-name="Layer 1" xmlns="http://www.w3.org/2000/svg" viewBox="0 0 1000 500"><defs></defs><title>braumconsulting R2.1</title><path fill="none" stroke="currentColor" stroke-width="2.5" d="M625.3,245.53a66.25,66.25,0,0,1-34.78,108.66c-3.74.89-6.07.39-8.79-2.39C567,336.63,549.13,327,527.35,322.63c1.55-.33,2.16-.51,2.8-.57a15.51,15.51,0,0,1,1.93,0c14.43,0,28.86.11,43.3-.07a33.08,33.08,0,0,0,31.86-25.1c4.72-17.85-9.11-37.72-27.46-39.42-2-.18-4.12-.34-6.18-.34H551a70.06,70.06,0,0,1-19.67-4.29,62,62,0,0,1-24.23-16.69c-5.55-6.12-14.5-12.68-14.87-13h8.17l50.58,0h23c15.22,0,28.24-9.12,32.59-22.7,6.78-21.2-9.37-42.33-32.33-42.33q-41,0-82.09,0V124h.59c27.45.49,54.91.2,82.36.19,33.24,0,61.73,24.11,66.38,57,3,21.29-3.27,40-18.25,55.55-1,1-2.48,1.43-3.94,2.24C622,242,623.71,243.71,625.3,245.53Z"></path><path fill="none" stroke="currentColor" stroke-width="2.5" d="M571.67,376H416.3c-23.91-5.7-41.42-20.72-51.88-44.35a75.69,75.69,0,0,1-6.55-29.11h0a63,63,0,0,1,.59-11.24c.06-.43.12-.88.19-1.32s.11-.77.18-1.17.13-.79.2-1.2a1.18,1.18,0,0,0,0-.25c0-.22.09-.43.12-.64h0c0-.2.08-.41.13-.63.07-.38.15-.76.23-1.15s.14-.69.22-1c0-.14.06-.29.1-.43.09-.41.19-.82.29-1.23.16-.67.33-1.34.53-2,.11-.42.23-.84.35-1.26a74.65,74.65,0,0,1,26.92-39.47s16.06-16.2,47.22-16.2c0,0,34.75,3.07,57,33.83l-58.66,0c-3.33,0-9.38,1.41-12.56,2.42-6.11,1.93-12.79,6.13-19.77,14.84l-.27.35a45.65,45.65,0,0,0-4.31,6.88c-.09.18-.19.35-.27.53A47.24,47.24,0,0,0,392,301.55v0c.5,20.65,16.16,39.92,37.62,42.48a90.68,90.68,0,0,0,10,.6c24.62.11,49.25-.38,73.85.33C536.64,345.66,558.07,357.84,571.67,376Z"></path></svg>
