<svg id="Layer_1" data-name="Layer 1" xmlns="http://www.w3.org/2000/svg" viewBox="0 0 1000 500"><defs><style>.cls-1,.cls-3{fill:none;}.cls-2{fill:#F2F0EB;}</style></defs><title>braumconsulting R2.1</title><path class="cls-1" d="M500.29,250v0l-.58,0Z"></path><path class="cls-2" d="M419,342.3V264.46h26.85v11.22h.32a10.25,10.25,0,0,1,1-1.51,41.86,41.86,0,0,1,3-3.18,36.61,36.61,0,0,1,4.84-4.1,27.72,27.72,0,0,1,6.68-3.26,25.13,25.13,0,0,1,8.36-1.44,31.3,31.3,0,0,1,8.64,1.21,26.22,26.22,0,0,1,6.23,2.42L487,267,475.78,289.8q-5-4.26-14-4.26a15.71,15.71,0,0,0-8.35,2.14,12.26,12.26,0,0,0-4.93,5.16,34.43,34.43,0,0,0-2.05,5.15,13,13,0,0,0-.62,3.33v41Z"></path><path class="cls-2" d="M513.25,332.67q-10.92-11.91-10.92-29.21t10.92-29.29q10.92-12,27.77-12,15.48,0,25.49,9.71v-7.44h26.86V342.3H566.81v-8.8h-.3q-10,11.07-25.49,11.07Q524.17,344.57,513.25,332.67Zm22.83-42.42a17.75,17.75,0,0,0-5.24,13.21q0,8,5,13.13t13.21,5.07a17.38,17.38,0,0,0,13-5.15,19.27,19.27,0,0,0-.15-26.26,17.55,17.55,0,0,0-12.81-5.15A17.8,17.8,0,0,0,536.08,290.25Z"></path><path class="cls-2" d="M650.26,264.46v37q0,11.52,3.48,16.38t11.84,4.85q8.35,0,11.83-4.85t3.5-16.38v-37h26.86V308q0,19.44-10.1,28t-32.09,8.57q-22,0-32.09-8.57t-10.08-28V264.46Z"></path><path class="cls-2" d="M737.8,342.3V264.46h26.86v8.19H765q10.46-10.45,22.3-10.46a37,37,0,0,1,15.93,3.49,23.71,23.71,0,0,1,11.24,10.76q11.84-14.25,25.79-14.25a33.83,33.83,0,0,1,21.4,7q9,7,9,21.85V342.3H843.73v-44a15.83,15.83,0,0,0-3.42-10.38q-3.42-4.17-10.24-4.17-5.93,0-9,3.56a14.06,14.06,0,0,0-3.41,8.57V342.3H790.76v-44a15.88,15.88,0,0,0-3.41-10.38q-3.42-4.17-10.25-4.17-6.21,0-9.33,3.86a14.15,14.15,0,0,0-3.11,9.18V342.3Z"></path><path class="cls-2" d="M438.68,221.16a12.66,12.66,0,0,0,5.87-1.56l.77-.53,3.29,6.56-.47.34c-.19.13-.63.39-1.32.76a16.77,16.77,0,0,1-2.24,1,18.37,18.37,0,0,1-3.12.73,23.49,23.49,0,0,1-4,.33,18.25,18.25,0,0,1-8.93-2.32,18.46,18.46,0,0,1-6.81-6.38,16.23,16.23,0,0,1-1.08-15.63,17.57,17.57,0,0,1,4-5.62,19.56,19.56,0,0,1,5.89-3.73,17.83,17.83,0,0,1,6.89-1.4,22.21,22.21,0,0,1,6,.78,14.9,14.9,0,0,1,3.93,1.56l1.15.78-3.29,6.56a6.41,6.41,0,0,0-.86-.59,13,13,0,0,0-2.3-.91,10.77,10.77,0,0,0-3.48-.58,13,13,0,0,0-5,.91,9,9,0,0,0-3.51,2.37,11,11,0,0,0-2,3.18,9.28,9.28,0,0,0-.68,3.47,9.82,9.82,0,0,0,2.89,6.91Q433.3,221.15,438.68,221.16Z"></path><path class="cls-2" d="M478.69,225.63a10.76,10.76,0,0,1,.14-16,13.35,13.35,0,0,1,9-3.15,13.11,13.11,0,0,1,8.92,3.17,10.11,10.11,0,0,1,3.63,8,10.23,10.23,0,0,1-3.55,8,13.1,13.1,0,0,1-9,3.13A13.3,13.3,0,0,1,478.69,225.63Zm5.62-11.57a4.9,4.9,0,0,0,3.51,8.49,4.72,4.72,0,0,0,3.51-1.39,5.19,5.19,0,0,0-.05-7.1,4.76,4.76,0,0,0-3.46-1.39A4.84,4.84,0,0,0,484.31,214.06Z"></path><path class="cls-2" d="M529,228.14V207.08h7.26v2.23h.08a8.42,8.42,0,0,1,6-2.84,11.81,11.81,0,0,1,3.1.42,11.11,11.11,0,0,1,2.95,1.27,6.52,6.52,0,0,1,2.3,2.44,7.34,7.34,0,0,1,.88,3.66v13.88h-7.26V216.23a4.31,4.31,0,0,0-1-2.86,3.43,3.43,0,0,0-2.74-1.23,4.21,4.21,0,0,0-3,1.28,3.82,3.82,0,0,0-1.32,2.81v11.91Z"></path><path class="cls-2" d="M590.38,206.47a15.26,15.26,0,0,1,3.56.42,14.13,14.13,0,0,1,2.64.81l.86.41-2.37,4.76a10.09,10.09,0,0,0-4.69-1.31,4,4,0,0,0-1.74.27,1,1,0,0,0-.52,1,1.84,1.84,0,0,0,0,.33,1.05,1.05,0,0,0,.17.31l.23.24a1.9,1.9,0,0,0,.35.23l.4.18.46.18.5.18a4.77,4.77,0,0,0,.55.2,4.59,4.59,0,0,0,.59.15,14,14,0,0,1,2.22.83,11.72,11.72,0,0,1,2,1.23,5.16,5.16,0,0,1,1.61,2,6,6,0,0,1,.58,2.7q0,7.19-10,7.18a13,13,0,0,1-4.29-.7,10.5,10.5,0,0,1-2.94-1.39l-.89-.74,2.95-5c.22.19.5.41.86.68a13.5,13.5,0,0,0,1.92,1.06,5.69,5.69,0,0,0,2.42.68c1.52,0,2.27-.51,2.27-1.53a1.2,1.2,0,0,0-.58-1.07,8.82,8.82,0,0,0-1.95-.88,18,18,0,0,1-2.16-.91,11.12,11.12,0,0,1-3.11-2.32,5,5,0,0,1-1.15-3.42,5.8,5.8,0,0,1,2.49-5A11.27,11.27,0,0,1,590.38,206.47Z"></path><path class="cls-2" d="M633.42,207.08v10a7.86,7.86,0,0,0,1,4.44,4.55,4.55,0,0,0,6.39,0,7.86,7.86,0,0,0,1-4.44v-10H649v11.79q0,5.24-2.74,7.56t-8.66,2.32c-4,0-6.87-.77-8.69-2.32s-2.72-4.07-2.72-7.56V207.08Z"></path><path class="cls-2" d="M678.63,228.14V192.85h7.26v35.29Z"></path><path class="cls-2" d="M717.2,207.08v-7.82h7.26v7.82h4.42v5.54h-4.42v6.7c0,2,.54,2.92,1.64,2.92a2.52,2.52,0,0,0,.86-.17,3.57,3.57,0,0,0,.7-.33l.24-.17,1.81,5.87a10.78,10.78,0,0,1-5.34,1.31,8.11,8.11,0,0,1-3.53-.71,5.42,5.42,0,0,1-2.24-1.94,8.6,8.6,0,0,1-1.09-2.54,12.27,12.27,0,0,1-.31-2.85v-8.09h-3v-5.54Z"></path><path class="cls-2" d="M758,195.36a4.32,4.32,0,0,1,7.36,3,4.13,4.13,0,0,1-1.27,3,4.31,4.31,0,0,1-6.09,0,4.29,4.29,0,0,1,0-6.07Zm-.68,11.72v21.06h7.26V207.08Z"></path><path class="cls-2" d="M794.86,228.14V207.08h7.26v2.23h.09a8.4,8.4,0,0,1,6-2.84,11.7,11.7,0,0,1,3.1.42,11.11,11.11,0,0,1,2.95,1.27,6.54,6.54,0,0,1,2.31,2.44,7.45,7.45,0,0,1,.88,3.66v13.88H810.2V216.23a4.27,4.27,0,0,0-1.05-2.86,3.41,3.41,0,0,0-2.73-1.23,4.18,4.18,0,0,0-3,1.28,3.79,3.79,0,0,0-1.33,2.81v11.91Z"></path><path class="cls-2" d="M846.18,233.31l5.94-2.92q1.64,2.7,5.7,2.7a5.73,5.73,0,0,0,3.51-1.21,4.3,4.3,0,0,0,1.63-3.71v-1.56c-1.29,1.43-3.58,2.14-6.9,2.14a9.73,9.73,0,0,1-7.51-3.22,12.07,12.07,0,0,1,0-15.81,10.35,10.35,0,0,1,14.28-.75H863v-1.89h7.26v21.64a9.6,9.6,0,0,1-3.42,7.9,13.65,13.65,0,0,1-9,2.81Q848.8,239.43,846.18,233.31Zm8.54-19.25a4.9,4.9,0,0,0,3.51,8.49,4.73,4.73,0,0,0,3.52-1.39,4.85,4.85,0,0,0,1.37-3.53,4.8,4.8,0,0,0-4.89-5A4.86,4.86,0,0,0,854.72,214.06Z"></path><path class="cls-2" d="M373.26,245.93a60.38,60.38,0,0,1-31.7,99c-3.41.82-5.54.36-8-2.18C320.11,329,303.83,320.17,284,316.2c1.41-.29,2-.46,2.54-.52a17.26,17.26,0,0,1,1.76,0c13.16,0,26.32.1,39.48-.07a30.14,30.14,0,0,0,29-22.88c4.3-16.27-8.31-34.37-25-35.93-1.86-.16-3.75-.3-5.62-.3h-20.6a63.67,63.67,0,0,1-17.93-3.91,56.58,56.58,0,0,1-22.09-15.21c-5-5.58-13.21-11.56-13.55-11.83h74.5c13.87,0,25.74-8.31,29.71-20.69,6.18-19.33-8.54-38.59-29.47-38.59q-37.41,0-74.83,0V135.12h.54c25,.45,50.05.18,75.07.17,30.3,0,56.27,22,60.51,52,2.75,19.41-3,36.44-16.64,50.64-.87.9-2.26,1.3-3.58,2C370.29,242.69,371.81,244.27,373.26,245.93Z"></path><path class="cls-2" d="M324.37,364.88H182.75C161,359.69,145,346,135.45,324.45a69,69,0,0,1-6-26.53h0a57.69,57.69,0,0,1,.54-10.24c.05-.4.11-.81.17-1.21s.1-.7.16-1.07.12-.72.19-1.09c0-.08,0-.15,0-.23s.07-.39.11-.58h0c0-.19.07-.38.11-.58l.21-1c.06-.32.13-.63.2-.95l.09-.4c.08-.37.17-.74.27-1.12.15-.6.3-1.22.48-1.85.11-.38.21-.76.32-1.14a68,68,0,0,1,24.54-36s14.63-14.77,43-14.77c0,0,31.68,2.8,52,30.84l-53.47,0A48.41,48.41,0,0,0,187,258.73c-5.57,1.75-11.66,5.58-18,13.52l-.25.32a41.78,41.78,0,0,0-3.93,6.27c-.08.17-.17.32-.24.49A43,43,0,0,0,160.61,297v0c.46,18.82,14.74,36.39,34.3,38.72a84.57,84.57,0,0,0,9.13.55c22.43.09,44.89-.35,67.31.29C292.44,337.2,312,348.3,324.37,364.88Z"></path><path class="cls-3" d="M500.29,250v0l-.58,0Z"></path></svg>